<svg width="89" height="28" viewBox="0 0 89 28" fill="none" xmlns="http://www.w3.org/2000/svg">
<path fill-rule="evenodd" clip-rule="evenodd" d="M33.9774 24.3805C30.7171 22.3499 26.2847 21.9509 19.1561 23.8818C11.5659 25.6131 9.02368 26.7531 5.66087 24.4731C4.38608 23.383 3.93184 21.6018 4.28351 19.0725C5.09674 14.9116 7.23604 10.9003 11.0604 6.49007C13.1997 4.16025 15.1852 2.17955 17.786 1.3887C19.7715 0.88996 19.6176 2.42892 19.3612 2.62842C19.1048 2.62842 18.7018 2.67829 18.3429 2.87779C18.0864 3.07728 17.3245 3.71851 17.2732 4.60912C17.2219 5.94858 18.6506 5.69921 19.2587 4.95823C19.918 4.1175 20.8851 2.52867 20.1232 1.04671C19.8155 0.50522 19.2587 0.156103 18.5407 0.00648212C16.1449 -0.143139 13.9031 0.996832 11.8663 2.18668C7.3899 5.21473 3.77799 9.4255 1.74125 14.0281C0.569027 16.7997 -0.500626 20.7611 1.08187 24.0314C2.30538 26.2614 4.84764 27.4513 7.91007 27.2019C10.0494 27.0024 12.6502 26.3113 14.3793 25.9123C16.1083 25.5133 25.0245 22.5423 27.9258 27.6935C27.9258 27.6935 28.8929 25.8625 31.3399 25.8126C33.3253 25.6131 36.2266 26.3541 38.3146 27.893C37.6479 26.9098 35.6624 25.4207 33.9774 24.3805Z" fill="#EC3237"/>
<path fill-rule="evenodd" clip-rule="evenodd" d="M20.0702 6.99691C19.594 6.70479 18.9859 6.65492 18.2973 6.81879C17.506 7.00404 16.6122 7.46715 15.6891 8.15113C14.5828 8.97049 13.4325 10.1033 12.3775 11.457C9.93052 14.5777 8.86086 18.19 10.0331 19.8786C11.5496 21.617 14.1725 19.615 15.6817 18.0618C15.8942 17.848 16.0847 17.6343 16.2459 17.449L16.3997 17.2495C17.1397 16.4943 17.7404 15.5752 18.2973 14.6775C18.4291 14.4566 18.561 14.2429 18.6929 14.0291C18.6929 14.0291 19.301 13.0388 19.3523 12.9889C19.7625 12.939 20.2168 12.7894 20.7296 12.6398C20.7296 12.6398 18.6929 15.9599 18.898 17.5915C18.9493 18.0903 18.898 19.9213 20.7296 20.4628C23.1766 20.8618 25.1108 19.0236 26.8398 17.392C26.8398 17.392 27.1475 17.0928 27.3014 16.9432C27.2501 17.0928 27.1988 17.3421 27.1988 17.3421C26.4882 19.7717 27.4552 20.2633 28.0633 20.4628C29.8949 20.9616 32.0855 18.3824 32.0855 18.3824C32.0342 19.1732 31.8804 19.8715 32.7449 20.4129C33.1991 20.5768 33.6607 20.5127 34.093 20.3559C34.4373 20.2277 34.7597 20.0425 35.0381 19.8643C37.3312 18.2826 39.2141 15.8032 40.694 13.7227H39.727C39.727 13.7227 37.3825 16.993 35.8586 17.734C35.8586 17.734 35.6022 17.8836 35.3971 17.734C35.1919 17.5844 35.2945 17.1925 35.3971 16.9432L41.2508 6.98979H38.5034C38.5034 6.98979 38.1957 7.48852 38.1957 7.53127C38.1957 7.53127 38.1445 7.43153 38.0932 7.38165C37.192 6.17043 35.7121 6.55517 34.093 7.78064C32.5984 8.91349 30.9792 10.7588 29.5872 12.7324C28.4663 14.3141 27.0376 16.1024 25.565 17.3849C25.565 17.3849 23.3744 19.3656 22.4074 17.9264C22.0484 17.335 22.1509 16.4872 22.3561 15.8958C23.477 12.8749 25.3599 10.1033 27.4992 8.46462C28.1073 8.01576 28.774 7.87326 29.0744 8.06563C29.3821 8.26513 29.4334 8.70687 29.2282 9.00611C28.7154 9.00611 28.3124 9.15573 28.0047 9.45497C27.3454 10.0962 27.1402 10.7446 27.3453 11.3359C28.3124 12.7253 30.2979 9.99646 30.1953 8.36488C30.144 7.77352 29.8363 7.22491 29.3308 6.92566C28.6201 6.4768 27.4992 6.62642 26.7812 6.92566C25.8141 7.27478 24.3342 8.50737 23.4184 9.45497C22.2975 10.6448 20.4146 11.9843 19.7992 11.8347C20.1215 11.4072 21.7553 8.18676 20.0702 6.99691ZM33.4189 11.7492C33.5801 11.5354 33.8292 11.2148 34.1076 10.8657C34.7816 10.0178 35.6242 8.99186 35.9172 8.77812C37.192 7.68802 37.6975 8.18676 37.7488 8.47887C36.6279 10.3955 35.3677 12.597 34.1076 14.5991C33.9977 14.7701 33.8878 14.9482 33.7779 15.1192L33.3676 15.7106C32.7596 16.6012 32.1954 17.3421 31.2283 17.8409C31.0745 17.8908 30.8693 17.8908 30.7155 17.791C30.5104 17.6913 30.4591 17.4918 30.4591 17.2923C30.569 16.6582 31.2283 14.5777 33.4189 11.7492ZM18.3412 12.9889C18.3412 12.9889 18.3412 13.0316 18.2973 13.0744L18.2899 13.0886L17.0664 15.0195C16.6708 15.5396 16.2092 16.1452 15.6891 16.6724C15.2715 17.0999 14.8172 17.4775 14.319 17.7411C13.96 17.8409 13.5058 17.9406 13.3007 17.6414C12.7878 17.05 13.0442 16.2521 13.2494 15.6108L13.3007 15.3614C13.8868 13.8367 14.8099 12.4973 15.6891 11.2077L15.7916 11.0581H15.8429C16.3924 12.1268 17.484 12.6255 18.2973 12.8749L18.3412 12.8891C18.3925 12.8891 18.3925 12.939 18.3412 12.9889ZM19.5134 10.7588L18.9566 11.9487C18.8541 11.9985 18.7515 11.9985 18.5976 11.9487L18.3412 11.8988L18.2973 11.8845C17.5573 11.6352 17.0078 11.1934 16.8613 10.6092C16.6049 9.46922 17.6232 8.6285 18.0335 8.27938C18.1141 8.22238 18.202 8.16538 18.2973 8.12263C18.6856 7.93739 19.1691 7.88751 19.4548 8.12976C19.7112 8.37913 19.7625 8.72112 19.7625 9.12011C19.8211 9.67584 19.6673 10.2173 19.5134 10.7588Z" fill="#EC3237"/>
<path fill-rule="evenodd" clip-rule="evenodd" d="M54.5052 14.3781C54.2488 13.8366 53.5894 13.4376 52.9301 13.4875C50.7395 13.687 48.6002 15.4183 47.4792 17.9476C46.8711 19.2372 46.5634 20.3273 46.3583 22.0088C47.0177 21.2678 48.4463 19.9782 50.0288 19.2871C50.0288 19.2871 50.2339 17.6555 51.3549 16.2163C51.7652 15.6249 52.5784 14.6346 53.5455 14.9267C54.3587 15.1761 54.0583 17.4061 52.9887 19.4866C52.1754 21.0683 50.9519 22.6072 49.7284 23.6973C48.6075 24.5879 47.0323 25.678 45.6037 24.8373C44.6879 24.3386 44.2776 23.2556 44.3289 21.8663C44.7392 17.9049 46.622 14.5847 49.2156 10.7729C51.8604 7.28175 54.7983 3.74071 58.7472 1.78139C58.8278 1.73864 58.9157 1.70302 58.9963 1.66027C59.8095 1.26128 60.5715 1.16153 61.2382 1.4109C61.2382 1.4109 60.0879 2.03076 58.7472 3.2206C57.6629 4.18245 56.4541 5.52192 55.6335 7.20338C55.1719 8.14385 54.5126 9.43345 55.1719 10.5734C55.5309 11.1648 56.0877 11.2147 56.6006 11.1648C57.4138 10.9867 58.1171 10.6019 58.7472 10.1032C59.8462 9.2197 60.696 7.97286 61.4433 6.80439C62.1027 5.41505 62.7181 4.03283 62.7181 2.49387C62.7181 2.29438 62.7181 2.04501 62.6668 1.85264C63.7365 1.31115 65.8758 2.3015 65.8758 2.3015C67.5535 2.84299 71.1728 5.52192 72.3963 6.06341C73.0044 5.3723 73.9788 4.38195 74.5356 3.88321L73.7224 3.38447C72.4476 2.64349 71.1215 1.89539 69.7514 1.20428C66.7476 -0.377432 64.3006 0.164055 63.0258 0.612918C62.513 0.76254 62.11 0.912161 62.11 0.912161C61.2528 -0.0211907 59.8462 0.0144334 58.7545 0.228178C58.6813 0.242428 58.6153 0.256677 58.5421 0.270927C54.5199 1.4109 50.7981 4.13258 46.7759 8.89196C43.8234 12.604 41.9918 15.8244 41.0173 18.995C40.2554 21.1253 40.0503 24.2958 41.8819 26.1269C43.457 27.7086 45.5011 27.3666 46.9737 26.818C50.1314 25.279 52.9813 22.0658 54.41 18.2967C54.7104 17.1496 55.1133 15.5679 54.5052 14.3781ZM61.7877 2.63637C61.5386 5.46492 60.0733 7.58099 58.7399 8.86346C57.8827 9.68994 57.0768 10.1673 56.6958 10.267C56.139 10.3668 55.1646 10.1174 56.0364 8.1866C56.7251 6.76876 57.6629 5.47205 58.7399 4.38195C59.663 3.45572 60.6814 2.68624 61.7364 2.13763C61.7877 2.34425 61.7877 2.444 61.7877 2.63637Z" fill="#EC3237"/>
<path fill-rule="evenodd" clip-rule="evenodd" d="M83.8907 3.23392C81.9053 4.32401 79.8173 5.065 77.2677 4.81563C76.557 5.55661 75.8903 6.35459 75.2822 7.19532C78.7989 8.08592 82.5647 6.10522 84.6527 4.27414C86.8433 2.39319 88.0155 0.0633698 88.0155 0.0633698C88.0155 0.0633698 86.3377 1.84458 83.8907 3.23392Z" fill="#EC3237"/>
<path fill-rule="evenodd" clip-rule="evenodd" d="M46.0002 7.04665H43.3481L41.8755 9.47622H44.5203L46.0002 7.04665Z" fill="#EC3237"/>
<path fill-rule="evenodd" clip-rule="evenodd" d="M78.5955 20.919L82.6689 13.8369H79.8702C79.7164 14.0863 79.46 14.528 79.46 14.528C79.3061 14.3285 78.9471 13.8369 78.8006 13.7371C78.1412 13.2883 77.1228 13.5376 76.4049 13.8868C76.0532 14.0863 75.7162 14.3143 75.3865 14.5565C72.8882 16.3947 70.954 19.3016 69.4301 21.6671C69.4301 21.6671 67.5985 24.5882 66.5802 24.8376C65.7669 24.8875 65.8695 23.8473 65.9208 23.5979C66.2285 21.8666 66.9392 20.178 67.6498 18.696C69.1297 17.7057 70.7562 16.4161 72.2874 15.0339C73.401 13.9865 74.4634 12.8893 75.3938 11.8776C77.1815 9.93249 78.4856 8.2724 78.7566 7.75229C78.7566 7.75229 78.2951 7.85204 77.7895 7.85204C77.1302 8.73552 76.295 9.72587 75.3938 10.7233C72.8149 13.5733 69.6866 16.4659 68.5143 17.0146C69.1004 15.6822 72.1922 10.2816 75.3938 6.3202C76.1118 5.4296 76.8298 4.61737 77.5331 3.93339L78.1412 3.3919C79.057 2.5013 80.0241 1.6107 80.786 1.46107C80.8886 1.46107 80.9912 1.46107 81.0425 1.66057C81.0938 2.35168 80.8373 2.85041 80.5296 3.44177L80.1267 4.27538C80.1267 4.27538 80.7348 4.17563 81.0938 4.02601C81.5553 3.18528 82.0608 2.24481 81.8557 1.15471C81.8044 0.805591 81.548 0.513474 81.1963 0.4636C80.0754 0.264105 78.8006 1.05496 77.8335 1.75319H77.7822C76.9617 2.37305 76.1704 3.04278 75.3865 3.75527C71.2764 7.51005 67.7084 12.5259 64.5361 18.981C64.2797 19.1805 63.21 19.4299 63.0049 19.3301C63.3639 18.5891 63.8694 17.5988 64.0745 16.5087C64.1258 16.2095 64.1771 15.8675 64.1771 15.5682C64.1771 14.8771 64.0232 14.2786 63.4152 13.8369C62.895 13.5875 62.2722 13.5946 61.7374 13.73C61.5323 13.7799 61.3418 13.8511 61.1733 13.9366C61.1 13.9651 61.0194 14.0008 60.9462 14.0364C60.2648 14.3356 59.6274 14.7417 59.034 15.212C57.3636 16.5301 56.0155 18.3683 54.9605 19.9357C54.1986 21.3749 53.378 22.8569 53.1802 24.5882C53.0263 25.9277 53.334 26.8183 54.1473 27.26C54.9605 27.659 55.9789 27.26 56.3891 27.0606C57.3782 26.5618 58.2501 25.8778 59.034 25.0941C59.7373 24.3887 60.3674 23.605 60.9462 22.7857C61.2172 22.3938 61.481 22.0019 61.7374 21.6029C62.0231 21.1612 62.2942 20.7123 62.5506 20.2777C62.6019 20.2777 63.4152 20.2279 64.0819 20.0782C64.0819 20.0782 64.0819 20.0782 64.1331 20.0782C64.0819 20.178 63.7742 21.1185 63.7742 21.1185C62.8071 23.8401 62.3968 25.7282 63.2613 26.8112C64.5361 28.3501 66.6754 26.7613 68.4557 24.631C68.0967 27.1603 69.4228 27.5522 70.4925 27.3527C71.6647 27.0534 72.9908 25.8137 73.5988 25.1725C73.3937 25.9135 73.445 27.2529 74.5146 27.3527C74.837 27.4168 75.1154 27.3812 75.3792 27.2957C75.7382 27.1817 76.0678 26.9751 76.4488 26.8041C78.742 25.5643 81.4894 21.5032 82.2074 20.3632H81.2916C80.2219 21.7027 78.8958 23.6834 77.2694 24.6239C76.9617 24.8234 76.61 24.6737 76.7565 24.2249C77.1155 23.1419 78.5955 20.919 78.5955 20.919ZM60.9462 21.0971C60.4187 21.9307 59.73 22.8498 59.034 23.5409C58.1255 24.4457 57.2024 24.9516 56.6382 24.3389C56.4844 24.1394 56.4331 23.89 56.4331 23.6478C56.3891 22.2228 57.8764 19.7647 59.0266 18.1973C59.1146 18.0762 59.2025 17.9622 59.2831 17.8553C59.6494 18.6675 60.3234 19.2304 60.9388 19.5724C61.1879 19.7077 61.4224 19.8146 61.6275 19.8859C61.4737 20.2207 61.2319 20.6482 60.9462 21.0971ZM62.0964 19.0808C62.0671 19.095 61.9279 19.0665 61.7447 18.9953C61.5176 18.9026 61.2246 18.7459 60.9535 18.5036C60.6678 18.24 60.4113 17.8767 60.3161 17.3993C60.1403 16.6441 60.4773 15.9815 60.9535 15.5041C61.166 15.2904 61.4077 15.1122 61.6422 14.9769C61.6715 14.9484 61.7081 14.927 61.7447 14.9056C62.0525 14.7132 62.492 14.6491 62.8144 14.7845C63.1734 14.984 63.2247 15.3758 63.2247 15.8247C63.2247 16.0741 63.1734 16.3662 63.1734 16.5657V16.6156C62.9096 17.4492 62.5506 18.3398 62.0964 19.0808ZM75.3865 21.3536C74.8297 22.2157 74.2436 23.0564 73.6062 23.8401L73.3498 24.0895C72.9395 24.4386 72.5878 24.7806 72.075 24.5882C71.9211 24.5384 71.8698 24.3887 71.8185 24.2391C71.8185 23.2987 72.2288 22.408 72.6831 21.5174L72.7856 21.2681C73.5329 20.0284 74.3681 18.6675 75.3865 17.4207C76.0385 16.6227 76.7565 15.8675 77.5771 15.2262C77.9361 14.9769 78.339 14.7774 78.7493 14.927C78.8519 15.0267 78.9544 15.1764 78.9544 15.326C78.9544 15.3758 78.9032 15.4756 78.9032 15.5255C78.2951 16.4659 77.7309 17.4064 77.2254 18.3469C76.6246 19.3444 76.0239 20.3632 75.3865 21.3536Z" fill="#EC3237"/>
</svg>
