<svg width="150" height="38" viewBox="0 0 150 38" fill="none" xmlns="http://www.w3.org/2000/svg">
<path d="M89.3253 36.7178C88.8107 36.7178 88.3933 36.5215 88.0716 36.13C87.074 34.9156 87.801 34.327 88.5366 33.3775L103.792 13.7025C103.994 13.4433 103.93 13.0617 103.698 12.8345C103.453 12.6215 103.087 12.6596 102.886 12.9192L101.5 14.7061H91.11C90.1772 14.7061 89.4618 14.3829 88.9639 13.7357C88.465 13.0888 88.2161 12.2376 88.2161 11.1821H106.351C106.897 11.1821 107.323 11.3525 107.629 11.6929C107.935 12.0333 108.087 12.4591 108.087 12.9695C108.087 13.446 107.942 13.8885 107.653 14.2975L93.7222 32.2001H91.2266C90.9095 32.2001 90.6503 32.4745 90.6503 32.8111C90.6503 33.1465 90.9095 33.4217 91.2266 33.4217H106.541C106.913 33.583 107.227 33.8304 107.484 34.1639C107.983 34.8111 108.232 35.6619 108.232 36.7178H89.3253Z" stroke="black" stroke-width="0.00179533" stroke-miterlimit="2.61313"/>
<path fill-rule="evenodd" clip-rule="evenodd" d="M89.3247 36.7172C88.8097 36.7172 88.3935 36.5217 88.0721 36.1302C87.0727 34.9146 87.8 34.3276 88.5375 33.3777L103.791 13.7008C103.993 13.4412 103.929 13.06 103.699 12.8336C103.451 12.6213 103.087 12.6582 102.887 12.9178L101.5 14.7063H91.1086C90.1774 14.7063 89.4627 14.3827 88.9641 13.7339C88.4655 13.0871 88.2162 12.2363 88.2162 11.1812H106.35C106.898 11.1812 107.322 11.3523 107.629 11.6923C107.934 12.032 108.087 12.4585 108.087 12.9697C108.087 13.4454 107.943 13.8883 107.652 14.2962L93.7212 32.1995H91.226C90.9089 32.1995 90.6493 32.4736 90.6493 32.8113C90.6493 33.1471 90.9089 33.4212 91.226 33.4212H106.54C106.912 33.5816 107.228 33.8309 107.485 34.1626C107.982 34.8098 108.231 35.6606 108.231 36.7172H89.3247Z" fill="black"/>
<path d="M128.582 14.9195C128.582 12.4624 129.936 11.2163 132.765 11.2163C132.754 12.1376 132.768 12.5943 132.774 12.9046C132.797 14.0607 135.62 11.036 141.159 11.2339C143.884 11.3307 146.041 12.0305 147.624 13.6242C149.207 15.2183 149.998 17.2767 149.998 19.8005V33.8447C149.998 34.941 149.636 35.7457 148.912 36.2607C148.188 36.7753 147.085 37.0329 145.604 37.0329V20.2488C145.604 18.6543 145.149 17.393 144.24 16.4629C143.331 15.5336 141.95 15.0685 140.098 15.0685C138.853 15.0685 137.682 15.3258 136.588 15.8408C135.494 16.3554 134.619 17.0526 133.962 17.9327C133.305 18.8121 132.977 19.767 132.977 20.7965V33.8447C132.977 34.941 132.615 35.7457 131.891 36.2607C131.167 36.7753 130.064 37.0329 128.582 37.0329V14.9195Z" stroke="black" stroke-width="0.00268061" stroke-miterlimit="2.61313"/>
<path d="M128.584 14.9193C128.584 12.4614 129.938 11.2153 132.766 11.2153C132.756 12.1382 132.771 12.5933 132.777 12.9047C132.799 14.0605 135.622 11.0358 141.162 11.2336C143.885 11.3305 146.044 12.0288 147.627 13.6236C149.209 15.2181 150 17.2761 150 19.7999V33.8445C150 34.9404 149.638 35.7459 148.914 36.2609C148.191 36.7762 147.087 37.0335 145.605 37.0335V20.2493C145.605 18.6545 145.15 17.3916 144.242 16.4627C143.333 15.5334 141.953 15.0679 140.101 15.0679C138.854 15.0679 137.684 15.3252 136.59 15.8402C135.496 16.3552 134.62 17.0516 133.963 17.9314C133.306 18.8111 132.979 19.7671 132.979 20.7952V33.8445C132.979 34.9404 132.616 35.7459 131.893 36.2609C131.17 36.7762 130.065 37.0335 128.584 37.0335V14.9193Z" fill="black"/>
<path d="M17.7102 32.4065C9.60142 32.4065 5.07444 25.7904 5.07444 19.0248C5.07444 12.2592 9.60142 5.64264 17.7102 5.64264C21.4909 5.64264 24.5255 7.08542 26.6647 9.3241C27.1125 9.77122 27.8085 9.87146 28.3559 9.52306L30.2462 8.27928C30.943 7.83139 31.0924 6.83689 30.4951 6.23958C27.3614 2.95608 22.8839 0.966309 17.7102 0.966309C7.41279 0.966309 0 8.82627 0 19.0248C0 29.2229 7.41279 37.0333 17.7102 37.0333C22.8839 37.0333 27.3614 35.0432 30.4951 31.8096C31.0924 31.2127 30.943 30.2178 30.2462 29.7703L28.3559 28.5265C27.8085 28.1289 27.1125 28.228 26.6647 28.7255C24.5255 30.9637 21.4909 32.4065 17.7102 32.4065Z" stroke="black" stroke-width="0.0034836" stroke-miterlimit="2.61313"/>
<path d="M17.7107 32.4055C9.60182 32.4055 5.07556 25.7901 5.07556 19.0245C5.07556 12.2589 9.60182 5.6416 17.7107 5.6416C21.4912 5.6416 24.5259 7.08552 26.6643 9.32305C27.1133 9.77018 27.8097 9.87119 28.3556 9.52279L30.247 8.27862C30.9434 7.83149 31.0917 6.83661 30.4944 6.23891C27.3607 2.95504 22.8839 0.966797 17.7107 0.966797C7.41388 0.966797 0.00131226 8.82675 0.00131226 19.0245C0.00131226 29.2226 7.41388 37.0326 17.7107 37.0326C22.8839 37.0326 27.3607 35.0425 30.4944 31.8101C31.0917 31.2128 30.9434 30.2175 30.247 29.7704L28.3556 28.5262C27.8097 28.1286 27.1133 28.2274 26.6643 28.7259C24.5259 30.9635 21.4912 32.4055 17.7107 32.4055Z" fill="black"/>
<path d="M115.97 13.9134C115.97 13.0222 116.352 12.3296 117.115 11.8363C117.878 11.3427 118.962 11.0957 120.364 11.0957V34.2151C120.364 35.1063 119.983 35.7981 119.218 36.2925C118.455 36.7858 117.372 37.0332 115.97 37.0332V13.9134Z" stroke="black" stroke-width="0.00261162" stroke-miterlimit="2.61313"/>
<path d="M115.965 13.9133C115.965 13.0237 116.349 12.3314 117.111 11.8367C117.875 11.3446 118.957 11.0972 120.36 11.0972V34.2147C120.36 35.1066 119.978 35.7989 119.214 36.2933C118.452 36.7857 117.368 37.0331 115.965 37.0331V13.9133Z" fill="black"/>
<path d="M72.3237 37.0339C70.2798 37.0339 68.4292 36.6485 66.7707 35.8774C65.1121 35.107 63.8222 34.0599 62.9005 32.7365C61.9788 31.413 61.5184 29.9306 61.5184 28.2885V20.0466C61.5184 18.3713 61.9788 16.8462 62.9005 15.4728C63.8222 14.099 65.1034 13.01 66.7455 12.2057C68.3873 11.4018 70.2467 11 72.3237 11C74.4012 11 76.2693 11.4018 77.9278 12.2057C79.5864 13.01 80.8763 14.099 81.7976 15.4728C82.7189 16.8462 83.1798 18.3713 83.1798 20.0466V28.2885C83.1798 29.9306 82.7109 31.413 81.7724 32.7365C80.8343 34.0599 79.5444 35.107 77.9027 35.8774C76.2606 36.6485 74.4012 37.0339 72.3237 37.0339ZM72.3237 33.264C74.3344 33.264 75.9339 32.7868 77.1239 31.8316C78.3132 30.8767 78.9079 29.6287 78.9079 28.0876V20.1971C78.9079 19.2049 78.6811 18.3282 78.229 17.5659L79.8444 15.5067C79.9904 15.3203 79.9576 15.0489 79.7712 14.9022C79.5852 14.7562 79.3138 14.7889 79.1678 14.975L77.7022 16.8427C77.5284 16.6442 77.3351 16.4562 77.1239 16.2771C75.9339 15.2719 74.3344 14.7687 72.3237 14.7687C70.3469 14.7687 68.7559 15.2719 67.5494 16.2771C66.3434 17.2819 65.74 18.5889 65.74 20.1971V28.0876C65.74 29.185 66.0418 30.1338 66.6453 30.9339L65.0958 32.9084C64.9498 33.0948 64.9825 33.3662 65.1689 33.513C65.355 33.6589 65.6271 33.6262 65.7731 33.4398L67.2319 31.5804C67.3257 31.6661 67.4225 31.7504 67.5246 31.8316C68.7135 32.7868 70.3137 33.264 72.3237 33.264Z" stroke="#FF6600" stroke-width="0.000615476" stroke-miterlimit="2.61313"/>
<path fill-rule="evenodd" clip-rule="evenodd" d="M72.3241 37.0327C70.2802 37.0327 68.428 36.6474 66.7695 35.877C65.1114 35.1066 63.8215 34.0599 62.9005 32.7353C61.9777 31.4126 61.5184 29.9291 61.5184 28.2873V20.0466C61.5184 18.3717 61.9777 16.845 62.9005 15.4728C63.8215 14.0986 65.103 13.0088 66.7451 12.2053C68.3869 11.4018 70.2451 11 72.3241 11C74.4008 11 76.2693 11.4018 77.9278 12.2053C79.586 13.0088 80.8759 14.0986 81.7968 15.4728C82.7177 16.845 83.179 18.3717 83.179 20.0466V28.2873C83.179 29.9291 82.7094 31.4126 81.772 32.7353C80.8347 34.0599 79.5429 35.1066 77.903 35.877C76.2609 36.6474 74.4008 37.0327 72.3241 37.0327ZM72.3241 33.2625C74.3348 33.2625 75.9335 32.7868 77.122 31.8308C78.3128 30.8771 78.9063 29.6283 78.9063 28.0872V20.1968C78.9063 19.2038 78.6795 18.3282 78.2286 17.5658L79.8436 15.5059C79.99 15.3203 79.9569 15.0485 79.7716 14.9022C79.5841 14.7558 79.3123 14.7889 79.1678 14.9742L77.701 16.8427C77.528 16.643 77.3343 16.4555 77.122 16.2763C75.9335 15.2708 74.3348 14.7684 72.3241 14.7684C70.3461 14.7684 68.7559 15.2708 67.5483 16.2763C66.3434 17.2819 65.7396 18.5878 65.7396 20.1968V28.0872C65.7396 29.1835 66.0403 30.133 66.6441 30.9323L65.0946 32.9084C64.9486 33.0936 64.9814 33.3654 65.1689 33.5118C65.3542 33.6582 65.6264 33.625 65.7727 33.4397L67.2311 31.5796C67.326 31.6661 67.4229 31.7503 67.5239 31.8308C68.7124 32.7868 70.3134 33.2625 72.3241 33.2625Z" fill="#FF6600"/>
<path d="M46.1931 37.0339C44.1492 37.0339 42.2978 36.6485 40.6397 35.8774C38.9808 35.107 37.6909 34.0599 36.7699 32.7365C35.8482 31.413 35.3878 29.9306 35.3878 28.2885V20.0466C35.3878 18.3713 35.8482 16.8462 36.7699 15.4728C37.6909 14.099 38.9728 13.01 40.6145 12.2057C42.2559 11.4018 44.116 11 46.1931 11C48.2705 11 50.1379 11.4018 51.7965 12.2057C53.4554 13.01 54.7453 14.099 55.6666 15.4728C56.5883 16.8462 57.0491 18.3713 57.0491 20.0466V28.2885C57.0491 29.9306 56.5795 31.413 55.6418 32.7365C54.703 34.0599 53.4138 35.107 51.7717 35.8774C50.1299 36.6485 48.2705 37.0339 46.1931 37.0339ZM46.1931 33.264C48.2034 33.264 49.8033 32.7868 50.9926 31.8316C52.1818 30.8767 52.7772 29.6287 52.7772 28.0876V20.1971C52.7772 19.2049 52.5504 18.3282 52.098 17.5659L53.7138 15.5067C53.8598 15.3203 53.827 15.0489 53.6406 14.9022C53.4546 14.7562 53.1824 14.7889 53.0364 14.975L51.5712 16.8427C51.3974 16.6442 51.2045 16.4562 50.9926 16.2771C49.8033 15.2719 48.2034 14.7687 46.1931 14.7687C44.2163 14.7687 42.6249 15.2719 41.4184 16.2771C40.2127 17.2819 39.6093 18.5889 39.6093 20.1971V28.0876C39.6093 29.185 39.9112 30.1338 40.5139 30.9339L38.9651 32.9084C38.8188 33.0948 38.8519 33.3662 39.0383 33.513C39.2243 33.6589 39.4961 33.6262 39.6425 33.4398L41.1013 31.5804C41.1943 31.6661 41.2919 31.7504 41.3933 31.8316C42.5829 32.7868 44.1824 33.264 46.1931 33.264Z" stroke="#FF6600" stroke-width="0.000615476" stroke-miterlimit="2.61313"/>
<path fill-rule="evenodd" clip-rule="evenodd" d="M46.1928 37.0327C44.1489 37.0327 42.299 36.6474 40.6405 35.877C38.982 35.1066 37.6902 34.0599 36.7696 32.7353C35.8487 31.4126 35.3871 29.9291 35.3871 28.2873V20.0466C35.3871 18.3717 35.8487 16.845 36.7696 15.4728C37.6902 14.0986 38.974 13.0088 40.6138 12.2053C42.2556 11.4018 44.1161 11 46.1928 11C48.2714 11 50.138 11.4018 51.7965 12.2053C53.4551 13.0088 54.7446 14.0986 55.6674 15.4728C56.5884 16.845 57.05 18.3717 57.05 20.0466V28.2873C57.05 29.9291 56.5804 31.4126 55.643 32.7353C54.7034 34.0599 53.4139 35.1066 51.7718 35.877C50.1296 36.6474 48.2714 37.0327 46.1928 37.0327ZM46.1928 33.2625C48.2035 33.2625 49.8041 32.7868 50.993 31.8308C52.1819 30.8771 52.7773 29.6283 52.7773 28.0872V20.1968C52.7773 19.2038 52.5505 18.3282 52.0973 17.5658L53.7147 15.5059C53.8606 15.3203 53.8279 15.0485 53.6403 14.9022C53.4551 14.7558 53.1829 14.7889 53.0369 14.9742L51.572 16.8427C51.3967 16.643 51.2053 16.4555 50.993 16.2763C49.8041 15.2708 48.2035 14.7684 46.1928 14.7684C44.2171 14.7684 42.6246 15.2708 41.4193 16.2763C40.2121 17.2819 39.6106 18.5878 39.6106 20.1968V28.0872C39.6106 29.1835 39.9113 30.133 40.5147 30.9323L38.9656 32.9084C38.8192 33.0936 38.8524 33.3654 39.0377 33.5118C39.2252 33.6582 39.497 33.625 39.6434 33.4397L41.1021 31.5796C41.1948 31.6661 41.2916 31.7503 41.3926 31.8308C42.5834 32.7868 44.1821 33.2625 46.1928 33.2625Z" fill="#FF6600"/>
</svg>
