<svg width="89" height="27" viewBox="0 0 89 27" fill="none" xmlns="http://www.w3.org/2000/svg">
<g clip-path="url(#clip0_998_28458)">
<rect width="88.4866" height="26.0652" transform="translate(0.513367 0.934814)" fill="white"/>
<path fill-rule="evenodd" clip-rule="evenodd" d="M22.928 0.934662H44.0646V26.9999H22.928V0.934662Z" fill="#2760A4"/>
<path fill-rule="evenodd" clip-rule="evenodd" d="M45.336 0.934662H66.4726V26.9999H45.336V0.934662Z" fill="#2760A4"/>
<path fill-rule="evenodd" clip-rule="evenodd" d="M0.512909 0.93573H21.6931V27.0009H0.512909V0.93573Z" fill="#2760A4"/>
<path fill-rule="evenodd" clip-rule="evenodd" d="M67.7059 0.934662H88.8861V26.9999H67.7059V0.934662Z" fill="#2760A4"/>
<path fill-rule="evenodd" clip-rule="evenodd" d="M11.0705 22.4874L11.3028 22.5088L11.6949 22.523L12.0071 22.5088L12.3048 22.4803L12.588 22.4375L12.8567 22.3733L13.1253 22.2949L13.3795 22.188L13.6191 22.0668L13.8587 21.9313L14.091 21.7745L14.3089 21.6033L14.5122 21.418L14.7155 21.2041L14.9043 20.9831L15.0785 20.7335L15.2383 20.484L15.398 20.1917L15.5432 19.8994L15.6812 19.5929L15.8191 19.2863L15.9426 18.9726L16.0515 18.6589L16.1459 18.3309L16.2403 18.003L16.3201 17.6608L16.3855 17.3186L16.4508 16.9621L16.5017 16.6056L16.5452 16.2349L16.5888 15.8499L16.6033 15.4649L16.6324 15.0799V14.6807L16.6178 14.2173L16.6033 13.7538L16.5743 13.3047L16.5452 12.8555L16.4944 12.4206L16.4436 12L16.3782 11.5651L16.2984 11.1587L16.2185 10.7381L16.1096 10.3388L16.0007 9.93246L15.8772 9.54746L15.7393 9.14821L15.6013 8.76324L15.4561 8.39249L15.2963 8.02177L15.1221 7.6653L14.9333 7.33735L14.73 7.03077L14.5122 6.73848L14.2871 6.47467L14.0475 6.23941L13.7788 6.02554L13.5102 5.82591L13.227 5.65479L12.9148 5.51222L12.6025 5.37676L12.2685 5.2698L11.9345 5.19138L11.5715 5.14147L11.2084 5.0987H11.0777V3.6443H11.085L11.419 3.63004L11.92 3.6443L12.392 3.68707L12.8639 3.73698L13.3214 3.80115L13.7643 3.90808L14.1927 4.02928L14.6066 4.16474L15.0132 4.33585L15.4053 4.52122L15.7828 4.72084L16.1459 4.93473L16.4944 5.17L16.8139 5.43378L17.1406 5.71184L17.4383 6.00415L17.736 6.32496L18.0047 6.65291L18.2588 6.99513L18.4984 7.3516L18.7235 7.72233L18.9268 8.10732L19.1156 8.5137L19.2899 8.92009L19.4351 9.35497L19.5803 9.80413L19.7037 10.2533L19.7981 10.7309L19.878 11.2229L19.9433 11.722L19.9942 12.2353L20.0232 12.7628V13.3047L20.0087 13.8465L19.9797 14.4026L19.9288 14.9302L19.8635 15.4578L19.7546 15.9854L19.6457 16.4844L19.5004 16.9977L19.3407 17.4968L19.1664 17.9745L18.9631 18.4521L18.7453 18.9013L18.5057 19.3362L18.2661 19.7568L17.9974 20.1561L17.6997 20.5553L17.402 20.9261L17.0825 21.2683L16.7485 21.5962L16.3855 21.9099L16.0224 22.2022L15.6304 22.466L15.2237 22.7155L14.8171 22.9437L14.3742 23.1576L13.9313 23.3572L13.4884 23.514L13.0164 23.6495L12.5445 23.7707L12.058 23.8491L11.557 23.9133L11.0632 23.9489V22.4874H11.0705ZM5.52312 13.0266V13.4901L5.55217 13.9249L5.58121 14.3598L5.62478 14.7805L5.67561 15.2154L5.72644 15.636L5.80631 16.0424L5.88617 16.4488L5.99509 16.8551L6.104 17.2544L6.22743 17.6536L6.36539 18.0529L6.51061 18.4379L6.65584 18.8229L6.83009 19.1936L7.00436 19.5643L7.20766 19.9208L7.41097 20.263L7.6288 20.5696L7.86114 20.8619L8.11528 21.1257L8.36942 21.3609L8.63807 21.5891L8.93577 21.7887L9.23346 21.9598L9.54569 22.1024L9.87968 22.2379L10.2137 22.3448L10.5622 22.4232L10.9398 22.4731L11.0777 22.4874V23.9632H11.0705L10.5477 23.9775L10.2282 23.9632L9.90873 23.9489L9.59651 23.9204L9.28429 23.8919L8.98659 23.842L8.67438 23.7921L8.3912 23.7279L8.0935 23.6495L7.82485 23.5711L7.54167 23.4641L7.27301 23.3572L7.00436 23.236L6.75022 23.1148L6.4961 22.9793L6.25648 22.8225L6.01687 22.6656L5.77726 22.5088L5.54491 22.3377L5.31982 22.1523L5.102 21.9669L4.89869 21.7673L4.69537 21.5535L4.50659 21.3396L4.31781 21.1114L4.14355 20.8833L3.96928 20.648L3.80955 20.3985L3.64981 20.149L3.50458 19.8851L3.37389 19.6214L3.23593 19.3433L3.1125 19.0653L2.98906 18.773L2.86563 18.4807L2.77123 18.1741L2.67683 17.8675L2.58245 17.561L2.50258 17.2473L2.43722 16.9336L2.37188 16.6199L2.30653 16.2919L2.26297 15.964L2.2194 15.636L2.17584 15.3081L2.14679 14.9658L2.13226 14.6094L2.11775 14.2672L2.10323 13.9107V13.8964L2.11775 13.5257L2.13226 13.155L2.14679 12.7985L2.19035 12.442L2.23392 12.0856L2.27749 11.7291L2.34284 11.3869L2.40818 11.0589L2.47353 10.7309L2.56793 10.403L2.66232 10.0893L2.75671 9.77561L2.88014 9.46191L3.00359 9.15535L3.12702 8.86304L3.27224 8.55648L3.41745 8.27842L3.56267 8.00038L3.72241 7.72233L3.89668 7.45854L4.07093 7.20901L4.25973 6.95949L4.44851 6.72421L4.65181 6.49606L4.85512 6.27505L5.08747 6.06118L5.3053 5.86155L5.53765 5.66193L5.77726 5.46231L6.01687 5.29121L6.27101 5.10583L6.53966 4.94899L6.79379 4.79214L7.07697 4.64954L7.34562 4.51408L7.6288 4.37863L7.9265 4.25743L8.22419 4.15048L8.52189 4.05781L8.81959 3.97938L9.13181 3.90096L9.44403 3.8368L9.76352 3.78688L10.083 3.74411L10.417 3.70133L10.751 3.67281L11.0777 3.65856V5.11297H10.8164H10.5477L10.3081 5.12722L10.054 5.14147L9.82161 5.18425L9.58199 5.22702L9.36416 5.2698L9.14633 5.31971L8.9285 5.38387L8.7252 5.46231L8.53642 5.54072L8.34764 5.61915L8.15884 5.72609L7.98459 5.83303L7.82485 5.95424L7.67962 6.07543L7.51988 6.21089L7.25123 6.48895L6.98258 6.79551L6.75022 7.1092L6.54692 7.45143L6.35814 7.82215L6.19839 8.20714L6.05318 8.60639L5.94426 9.02702L5.83535 9.47618L5.75548 9.92534L5.69013 10.403L5.6393 10.9021L5.58848 11.4154L5.55943 11.943L5.53039 12.4848V13.0552V13.0266H5.52312Z" fill="#FDFDFD"/>
<path fill-rule="evenodd" clip-rule="evenodd" d="M26.565 22.9431L26.594 22.8647V22.772L26.6086 22.5866V22.387V22.2017L26.6884 21.3675L26.7683 20.5476L26.8337 19.7135L26.8772 18.8651V17.2681H27.9518L28.1406 19.9202L28.206 20.0913L28.2568 20.2268L28.3076 20.3623L28.373 20.4692L28.4165 20.5619L28.4674 20.6546L28.5763 20.79L28.6852 20.9112L28.8086 21.0182L28.9466 21.1251L29.0119 21.175L29.0918 21.2392L29.5057 21.503L29.9196 21.7311L30.1374 21.8523L30.3552 21.945L30.5876 22.0377L30.8272 22.1304L31.0595 22.1945L31.3136 22.2729L31.5678 22.3229L31.8364 22.3728L32.1196 22.4155L32.4173 22.4441L32.7295 22.4583L33.0418 22.4726L33.3395 22.4583L33.6371 22.4441L33.9494 22.4013L34.2471 22.3514L34.5448 22.2872L34.8425 22.2088L35.1402 22.1161L35.4233 22.0092L35.692 21.888L35.9607 21.7454L36.2003 21.5885L36.4326 21.4174L36.6359 21.2321L36.8102 21.0182L36.9699 20.7972L37.1079 20.5476L37.2458 20.3337L37.3693 20.0842L37.4782 19.8347L37.558 19.5709L37.6234 19.3071L37.667 19.0291L37.7105 18.7653V18.4872L37.696 18.1735L37.6524 17.8598L37.5726 17.5533L37.5218 17.3964L37.4709 17.2538L37.4056 17.1112L37.3257 16.9758L37.2458 16.8403L37.1514 16.7049L37.0425 16.5837L36.9336 16.4767L36.8102 16.3698L36.6722 16.2771L36.6069 16.2272L36.5415 16.1773L36.4471 16.1274L36.3527 16.0775L36.1349 15.9705L35.8953 15.8636L35.6266 15.7567L35.3435 15.6497L35.0313 15.5428L34.7336 15.4501L34.1164 15.2647L33.8187 15.1863L33.521 15.1221L33.2523 15.058L33.0127 15.0081L32.7949 14.9653L32.7005 14.9368L32.6061 14.9225L32.2285 14.8441L31.88 14.7657L31.546 14.6872L31.2338 14.6088L30.9361 14.5304L30.6529 14.452L30.3843 14.3735L30.1156 14.2809L29.876 14.1882L29.6509 14.0955L29.4258 14.0028L29.208 13.9101L28.7941 13.6962L28.402 13.461L28.2641 13.3825L28.1261 13.2614L27.9881 13.1259L27.8429 12.9833L27.705 12.7979L27.5597 12.5983L27.4145 12.3844L27.2766 12.1563L27.1531 11.921L27.0297 11.6715L26.9208 11.4077L26.8264 11.1439L26.7465 10.8659L26.6957 10.5735L26.6521 10.2955L26.6376 10.0032L26.6521 9.8321V9.64672L26.6667 9.46135L26.6957 9.24748L26.7102 9.0336L26.7538 8.81971L26.7973 8.59156L26.8482 8.37055L26.899 8.14242L26.9644 7.92139L27.0442 7.69326L27.1241 7.46512L27.2185 7.25124L27.3419 7.0516L27.4654 6.85197L27.6033 6.66662L27.8066 6.35293L28.0244 6.04637L28.2786 5.75406L28.4165 5.6186L28.5545 5.476L28.6997 5.34054L28.874 5.20508L29.0337 5.06961L29.2225 4.93418L29.4258 4.79871L29.6436 4.6775L29.876 4.54204L30.1156 4.42084L30.573 4.23548L31.045 4.0929L31.517 3.9503L32.0034 3.84336L32.5044 3.76494L33.0127 3.70077L33.5355 3.658L34.0728 3.64374L34.3995 3.658L34.7336 3.67225L35.0966 3.71503L35.4596 3.76494L35.8517 3.81485L36.2293 3.87901L36.6214 3.95743L36.999 4.05011L37.3765 4.1428L37.7396 4.24973L38.0881 4.35668L38.4076 4.47788L38.7053 4.59909L38.9739 4.73453L39.1119 4.78444L39.2208 4.8486L39.3297 4.91277L39.4241 4.97695L39.1046 7.17281L38.9812 9.60395L37.9429 9.6182L37.7977 7.99269L37.7831 7.97844V7.94991L37.7541 7.85723L37.7105 7.75029L37.6597 7.61483L37.6161 7.47225L37.5508 7.3154L37.4128 7.00882L37.333 6.87336L37.2531 6.73792L37.1442 6.61671L37.0353 6.50977L36.9409 6.40284L36.861 6.31015L36.7957 6.24599L36.7666 6.20321L36.7521 6.18894L36.5924 6.04637L36.4544 5.9109L36.3092 5.78969L36.164 5.69701L36.0042 5.59007L35.83 5.49739L35.721 5.44747L35.5976 5.4047L35.4742 5.35481L35.3362 5.29065L35.0966 5.21221L34.857 5.1338L34.6174 5.08389L34.385 5.04111L34.1599 4.99834L33.9421 4.96981L33.7388 4.95556H33.55H33.3612L33.1579 4.98406L32.9401 4.99834L32.7368 5.04111L32.519 5.08389L32.3011 5.1338L32.0833 5.19796L31.88 5.26212L31.6767 5.34054L31.4734 5.43322L31.2846 5.52591L31.1103 5.6186L30.9361 5.72553L30.7909 5.84674L30.6456 5.96793L30.5222 6.08914L30.3988 6.23172L30.2899 6.37431L30.1809 6.53116L30.0865 6.68801L30.0067 6.84486L29.9268 7.01596L29.7889 7.34391L29.6799 7.67188L29.6509 7.82872L29.6073 7.9713L29.5783 8.1139L29.5638 8.25647L29.5492 8.39193V8.51314V8.60583L29.5638 8.72702L29.5783 8.84823L29.6073 8.98369L29.6509 9.12627L29.6945 9.26886L29.7889 9.56117L29.8542 9.71802L29.9341 9.8606L30.0139 9.99606L30.0938 10.1387L30.2027 10.2598L30.3116 10.3811L30.4351 10.488L30.5585 10.5807L30.7836 10.7233L31.0377 10.8587L31.3209 10.9942L31.6331 11.1154L31.9671 11.2366L32.3157 11.3435L32.6932 11.4505L33.0998 11.5574L33.9058 11.757L34.6972 11.9424L35.4524 12.1278L36.193 12.3274L36.556 12.4201L36.8901 12.527L37.2241 12.6482L37.5363 12.7837L37.8485 12.9263L38.1317 13.0831L38.4003 13.2542L38.669 13.4253L38.8432 13.5323L39.0175 13.6677L39.1918 13.8103L39.366 13.9672L39.5258 14.1525L39.671 14.3664L39.8162 14.5803L39.9542 14.8156L40.0776 15.0508L40.201 15.3146L40.2954 15.5784L40.3753 15.8565L40.4406 16.1345L40.4915 16.4268L40.5205 16.7334L40.535 17.0257V17.1968L40.5205 17.3679L40.4915 17.5675L40.4624 17.7814L40.4334 17.9953L40.3826 18.2306L40.339 18.4658L40.2737 18.7011L40.2083 18.9506L40.1284 19.2002L40.0486 19.4354L39.9542 19.685L39.8453 19.9202L39.7363 20.1555L39.6129 20.3765L39.4749 20.5904L39.3515 20.7758L39.2281 20.9469L39.0901 21.118L38.9522 21.2891L38.8069 21.4459L38.6472 21.6028L38.4874 21.7596L38.3132 21.9022L38.1389 22.0591L37.9501 22.1945L37.7468 22.3371L37.5435 22.4726L37.1297 22.7221L36.6722 22.9503L36.1857 23.1499L35.6775 23.3353L35.1402 23.4921L34.5883 23.6275L34.2906 23.6775L33.9929 23.7274L33.6952 23.7701L33.383 23.8129L33.0708 23.8414L32.7513 23.8557L32.4318 23.87H32.1124H31.8292L31.546 23.8557L31.2483 23.8414L30.9361 23.8129L30.6239 23.7844L30.3116 23.7416L29.9776 23.6917L29.6436 23.6418L29.2951 23.5777L28.9466 23.5135L28.569 23.4351L28.1914 23.3424L27.7994 23.2497L27.4073 23.1427L26.9934 23.0216L26.565 22.9003V22.9431Z" fill="#FDFDFD"/>
<path fill-rule="evenodd" clip-rule="evenodd" d="M63.364 20.8683L62.6669 22.3869L62.3039 22.5723L61.9408 22.7576L61.5633 22.9145L61.1857 23.0713L60.8081 23.2139L60.4305 23.3494L60.0675 23.4706L59.7045 23.5775L59.3414 23.6559L58.9784 23.7344L58.6008 23.7985L58.2232 23.8413L57.8457 23.8841L57.4681 23.9126L57.0905 23.9268L56.7275 23.9411L56.3935 23.9268L56.0595 23.9126L55.74 23.8841L55.406 23.8413L55.0865 23.7914L54.767 23.7272L54.4548 23.6631L54.1426 23.5846L53.8304 23.492L53.5181 23.385L53.2204 23.2781L52.9227 23.1569L52.625 23.0214L52.3419 22.886L52.0587 22.7434L51.79 22.5865L51.5577 22.4439L51.3399 22.2871L51.1221 22.1302L50.9187 21.9449L50.7154 21.7595L50.5266 21.5741L50.3379 21.3602L50.1636 21.1464L49.9893 20.9325L49.8151 20.6972L49.6553 20.462L49.5101 20.2124L49.3649 19.9629L49.2197 19.6991L49.0817 19.421L48.9583 19.1287L48.7187 18.5441L48.5154 17.9524L48.3411 17.3606L48.2031 16.7404L48.0942 16.1201L48.0144 15.4856L47.9635 14.8511L47.949 14.2023L47.9635 13.8173L47.9781 13.4466L48.0071 13.0901L48.0579 12.7479L48.1087 12.4057L48.1741 12.0635L48.254 11.7355L48.3484 11.3933L48.4718 11.0653L48.5952 10.7374L48.7332 10.4094L48.8784 10.0815L49.0381 9.75353L49.2124 9.41133L49.4157 9.06911L49.619 8.72689L49.8078 8.41319L50.0111 8.12088L50.2289 7.84284L50.4468 7.57906L50.6791 7.32952L50.9115 7.09426L51.1293 6.87323L51.3617 6.65935L51.5795 6.45973L51.7973 6.27436L52.0151 6.11751L52.2039 5.96066L52.3782 5.82522L52.5525 5.70401L52.6977 5.61133L52.8211 5.51864L53.0607 5.37606L53.2858 5.23347L53.5036 5.09801L53.6924 4.99107L53.8812 4.88413L54.0555 4.79145L54.2297 4.71301L54.3895 4.6346L54.709 4.49914L55.0284 4.37794L55.3769 4.25674L55.5657 4.20683L55.769 4.14266L55.907 4.09989L56.045 4.07137L56.3427 3.99295L56.6767 3.91453L57.0107 3.8361L57.3592 3.77193L57.6932 3.72203L58.0272 3.67926H58.1869L58.3321 3.66499L58.6952 3.67926L59.0437 3.69351L59.3922 3.73629L59.7408 3.77907L60.0893 3.82897L60.4233 3.87888L60.7428 3.9573L61.0623 4.03573L61.3817 4.1284L61.694 4.22109L61.9917 4.32803L62.2893 4.43497L62.5725 4.55616L62.8412 4.67737L63.1098 4.79858L63.364 4.93404L62.9864 7.03721L62.7976 10.2312H61.8392L61.7448 9.19743L61.6504 8.68411L61.5996 8.43458L61.5487 8.18506L61.4834 7.95692L61.418 7.74302L61.3745 7.65036L61.3309 7.57192L61.2801 7.49351L61.2365 7.42935L61.1857 7.35091L61.1058 7.25822L61.0259 7.16554L60.9316 7.08712L60.8226 6.99444L60.6992 6.8875L60.5685 6.79482L60.4233 6.70213L60.2781 6.60944L60.1038 6.51676L59.9441 6.42409L59.7553 6.34566L59.3777 6.18881L58.9711 6.04623L58.8114 5.99632L58.6661 5.95355L58.383 5.88938L58.1288 5.82522L57.8892 5.78243L57.6496 5.75392L57.381 5.7254L57.2357 5.71115H57.0905H56.9308H56.7565L56.2991 5.7254L55.8562 5.76817L55.6384 5.81095L55.4205 5.85372L55.2027 5.90364L54.9994 5.9678L54.7815 6.03196L54.5782 6.1104L54.3895 6.18881L54.1862 6.2815L53.9974 6.38843L53.8086 6.49537L53.6343 6.60233L53.4455 6.73779L53.2858 6.87323L53.1261 7.01583L52.9663 7.17267L52.8066 7.32952L52.6686 7.50062L52.5234 7.68599L52.4 7.87137L52.2765 8.07099L52.1531 8.27061L52.0442 8.47024L51.9498 8.68411L51.8554 8.89801L51.7755 9.09763L51.6956 9.31151L51.6448 9.52538L51.5795 9.73928L51.5287 10.0458L51.4633 10.3524L51.4198 10.6804L51.3762 11.0226L51.3326 11.379L51.3036 11.7498L51.289 12.149V12.5554L51.3036 13.1471L51.3471 13.7389L51.427 14.3306L51.5359 14.901L51.6594 15.4713L51.8191 16.0417L51.9788 16.5978L52.1821 17.1396L52.4 17.653L52.6323 18.152L52.8865 18.6297L53.0244 18.8578L53.1696 19.0788L53.3148 19.2927L53.4601 19.4923L53.6198 19.692L53.7796 19.8773L53.9538 20.0627L54.1281 20.2338L54.3169 20.4049L54.5056 20.5618L54.7307 20.7186L54.9486 20.8612L55.1736 21.0038L55.406 21.1392L55.6311 21.2604L55.8707 21.3674L56.0958 21.4601L56.3281 21.5528L56.8146 21.6953L57.0688 21.7595L57.3229 21.8094L57.5915 21.8593L57.8602 21.8878L58.1579 21.9163L58.4556 21.9306L58.7533 21.9163L59.051 21.9021L59.3342 21.8736L59.6173 21.8237L59.886 21.7738L60.1401 21.7096L60.4088 21.6454L60.6629 21.5528L60.917 21.4601L61.1712 21.3531L61.694 21.125L62.2313 20.8755L62.5145 20.7329L62.8121 20.5903L63.364 20.8683Z" fill="#FDFDFD"/>
<path fill-rule="evenodd" clip-rule="evenodd" d="M78.3946 12.1278H78.5108H79.3821H79.796H80.2098H80.6164H81.0085H81.3716H81.7201H82.0396H82.3228H82.5914H82.7003H82.8092H82.9182H82.998H83.0779H83.1432H83.2086H83.2522H83.2812H83.3102V10.7375V10.5522L83.2957 10.3525L83.2667 10.1387L83.2376 9.91051L83.1578 9.47562L83.0489 9.02646L82.9109 8.57731L82.7657 8.15667L82.6858 7.94278L82.6059 7.74315L82.5115 7.5578L82.4317 7.37243L82.3518 7.21558L82.2719 7.05873L82.0977 6.76642L81.8944 6.50264L81.662 6.26738L81.4297 6.05348L81.1755 5.85386L80.9214 5.68276L80.6527 5.54016L80.3841 5.41897L80.1154 5.29776L79.8468 5.21935L79.5781 5.14091L79.3385 5.091L79.0989 5.04823L78.8738 5.03398L78.6705 5.01972L78.4018 5.03398H78.3946V3.67939L78.6705 3.658L79.1134 3.64374H79.3966L79.6653 3.658L79.9194 3.67225L80.1735 3.70077L80.66 3.75067L81.132 3.84336L81.5749 3.96456L82.0178 4.10715L82.4462 4.29252L82.664 4.39946L82.8819 4.5064L83.1069 4.62759L83.3102 4.7488L83.5136 4.88426L83.7023 5.01972L83.8766 5.15519L84.0509 5.29776L84.2106 5.45461L84.3703 5.59721L84.5301 5.76831L84.6753 5.92515L84.8133 6.11053L84.944 6.29588L85.0819 6.48125L85.2199 6.68087L85.3433 6.89477L85.4667 7.11578L85.6701 7.55067L85.8734 7.98557L86.0621 8.40621L86.2364 8.82684L86.3018 9.02646L86.3671 9.22609L86.4324 9.41146L86.4833 9.59681L86.5268 9.78218L86.5559 9.95328L86.5704 10.1101L86.5849 10.2527L86.6648 10.9229L86.6938 13.0617L82.8746 13.6321L78.4018 13.6249V12.1278H78.3946ZM78.3946 24.0125V21.6099L78.6995 21.6955L79.0771 21.7739L79.4256 21.8238L79.7597 21.8666L80.0719 21.8951H80.2098L80.3478 21.9094H80.4712H80.5947L80.9141 21.8951L81.2336 21.8666L81.5531 21.8238L81.8871 21.7596L82.2211 21.6812L82.5406 21.5885L82.8746 21.4816L83.2086 21.3604L83.5281 21.2178L83.8475 21.0752L84.167 20.9184L84.4793 20.7615L84.7769 20.5761L85.0746 20.3908L85.3724 20.1912L85.641 19.9915L86.1638 20.4122L85.503 21.8666L85.3651 21.9878L85.2199 22.0947L85.0601 22.2016L84.9004 22.3086L84.7116 22.4298L84.5083 22.551L84.305 22.6579L84.0799 22.7792L83.6225 23.0073L83.1215 23.2212L82.6132 23.4208L82.0904 23.5776L81.8508 23.6561L81.5967 23.706L81.0884 23.8129L80.5656 23.8913L80.0646 23.9412L79.825 23.9698L79.5927 23.984L79.3748 24.0125H79.157L78.9682 24.0268H78.7939L78.6342 24.0411H78.4962L78.3946 24.0125ZM73.4789 12.1278L73.5225 12.142H73.5661H73.6314H73.6968H73.7766H73.871H73.9654H74.0743H74.314L74.5971 12.1278H74.9093H75.2434H75.6064H75.984H76.3761H76.7899H77.2038H77.6322H78.3946V13.6392L73.5152 13.6321V13.96L73.5298 14.288L73.5588 14.6017L73.6024 14.9296L73.6459 15.2504L73.6968 15.5641L73.7476 15.8707L73.8275 16.1773L73.8928 16.4838L73.9872 16.7904L74.0816 17.0827L74.176 17.375L74.3938 17.9311L74.5173 18.2092L74.6407 18.473L74.7786 18.7082L74.9166 18.9578L75.0618 19.193L75.2216 19.4141L75.3813 19.6351L75.5556 19.8489L75.7444 20.0486L75.9477 20.2482L76.151 20.4336L76.3688 20.6047L76.6011 20.7758L76.8407 20.9326L77.0949 21.0752L77.3635 21.2107L77.6467 21.3461L77.9299 21.4673L78.3365 21.5885L78.4091 21.6099V24.0125L78.2131 24.0054L77.9008 23.9911L77.6032 23.9484L77.32 23.9056L77.0513 23.8557L76.7681 23.7915L76.514 23.7131L76.2453 23.6347L75.9912 23.542L75.7371 23.435L75.2288 23.214L74.7206 22.9788L74.1978 22.715L73.9291 22.5724L73.675 22.4013L73.4354 22.2159L73.1958 22.002L72.9561 21.7881L72.7238 21.5529L72.4987 21.3034L72.2809 21.0396L72.0776 20.7758L71.8888 20.4977L71.7 20.2197L71.5257 19.9274L71.3515 19.6351L71.2063 19.3428L71.0683 19.0647L70.9304 18.7724L70.8069 18.5229L70.698 18.2448L70.5891 17.9525L70.4947 17.6602L70.4148 17.3465L70.335 17.0328L70.2551 16.7191L70.1897 16.3912L70.0808 15.7139L70.001 15.0366L69.9719 14.7086L69.9574 14.3807L69.9429 14.0527L69.9283 13.7248L69.9429 13.2614L69.9864 12.7979L70.0373 12.3488L70.1026 11.9139L70.197 11.4932L70.2914 11.0726L70.5092 10.2242L70.6327 9.80357L70.7779 9.40432L70.9376 9.01933L71.1264 8.66286L71.3152 8.30638L71.533 7.96418L71.7654 7.65049L71.9904 7.32965L72.3099 6.93041L72.6439 6.55969L73.007 6.20321L73.3846 5.86099L73.7984 5.53304L74.2268 5.21935L74.6988 4.92704L74.9384 4.78444L75.178 4.64898L75.4321 4.51352L75.7008 4.40658L75.9549 4.28538L76.2091 4.19271L76.4632 4.10002L76.7173 4.0216L76.9714 3.95743L77.2256 3.89326L77.4652 3.84336L77.7048 3.79345L77.9589 3.76494L78.184 3.72216L78.3801 3.7079V5.0625L78.1332 5.07675L77.8645 5.11953L77.6249 5.16944L77.3708 5.21935L77.1312 5.29776L76.8916 5.39045L76.6592 5.48313L76.4269 5.60432L76.2091 5.72553L75.9912 5.86099L75.7879 6.01784L75.5846 6.17469L75.3958 6.34579L75.207 6.53116L75.0328 6.71653L74.873 6.93041L74.7133 7.14428L74.5681 7.37243L74.4229 7.60771L74.2849 7.85723L74.1615 8.10676L74.038 8.37055L73.9436 8.6486L73.8492 8.92664L73.7694 9.23322L73.6895 9.52551L73.6387 9.83921L73.5879 10.16L73.5443 10.488L73.5152 10.816L73.5007 11.1582L73.4789 12.1278Z" fill="#FDFDFD"/>
</g>
<defs>
<clipPath id="clip0_998_28458">
<rect width="88.4866" height="26.0652" fill="white" transform="translate(0.513367 0.934814)"/>
</clipPath>
</defs>
</svg>
