<svg width="26" height="27" viewBox="0 0 26 27" fill="none" xmlns="http://www.w3.org/2000/svg">
<g clip-path="url(#clip0_997_27713)">
<g clip-path="url(#clip1_997_27713)">
<path d="M25.2493 14.331H19.3073C19.4089 9.55831 20.6372 9.01654 22.1798 8.86191L22.7747 8.78063L22.7747 3.53254L22.089 3.57304C20.0746 3.69795 17.8474 4.09818 16.3615 6.11977C15.059 7.89195 14.4848 10.7872 14.4848 15.2317L14.4848 23.4674H25.2493V14.331Z" fill="#1F2937"/>
<path d="M11.515 23.4674L11.515 14.331H5.65225C5.75383 9.55831 6.94238 9.01654 8.48506 8.86191L9.04036 8.78063V3.53254L8.39424 3.57304C6.37978 3.69795 4.13271 4.09818 2.64683 6.11977C1.34445 7.89195 0.750417 10.7872 0.750417 15.2317L0.750417 23.4674H11.515Z" fill="#1F2937"/>
</g>
</g>
<defs>
<clipPath id="clip0_997_27713">
<rect width="24.4986" height="27" fill="white" transform="matrix(-1 0 0 -1 25.2493 27)"/>
</clipPath>
<clipPath id="clip1_997_27713">
<rect width="24.4986" height="19.9349" fill="white" transform="matrix(-1 0 0 -1 25.2493 23.4674)"/>
</clipPath>
</defs>
</svg>
